<?xml version="1.0" encoding="utf-8"?>
<!-- Generator: Adobe Illustrator 16.0.0, SVG Export Plug-In . SVG Version: 6.00 Build 0)  -->
<!DOCTYPE svg PUBLIC "-//W3C//DTD SVG 1.1//EN" "http://www.w3.org/Graphics/SVG/1.1/DTD/svg11.dtd">
<svg version="1.1" id="Layer_1" xmlns="http://www.w3.org/2000/svg" xmlns:xlink="http://www.w3.org/1999/xlink" x="0px" y="0px"
	 width="400px" height="129px" viewBox="0 -24.807 400 129" enable-background="new 0 -24.807 400 129" xml:space="preserve">
<g display="none">
	<path display="inline" fill="#231F20" d="M79.563,53.53h-1.205l-0.172-9.984h1.412c1.033,5.68,3.925,8.643,8.333,8.643
		c3.753,0,5.819-1.895,5.819-4.926c0-1.445-0.551-2.582-1.515-3.271c-1.205-0.86-3.133-1.205-5.646-1.894
		c-5.509-1.48-8.16-2.857-8.16-7.402c0-4.269,2.858-7.023,7.333-7.023c2.514,0,4.718,0.825,6.438,2.41l1.343-2.066h1.274
		l0.379,8.953h-1.343c-1.308-5.131-4.028-7.713-8.092-7.713c-3.03,0-4.751,1.516-4.751,4.167c0,3.306,2.582,3.684,7.161,4.82
		c2.479,0.62,4.546,1.137,6.129,2.582c1.343,1.24,2.1,3.099,2.1,5.302c0,4.785-3.03,7.609-8.539,7.609
		c-2.687,0-5.2-0.965-6.852-2.584L79.563,53.53z"/>
	<path display="inline" fill="#231F20" d="M96.744,38.691v-1.378c2.823-0.206,4.442-2.651,4.613-7.127h1.447v6.99h4.958v1.516
		h-5.131v9.949c0,1.965,0.379,2.929,2.031,2.929c1.894,0,2.755-1.517,2.858-4.683h1.274c0,0.137,0,0.309,0,0.446
		c0,4.166-1.893,6.371-5.371,6.371c-3.099,0-3.925-1.516-3.925-4.752V38.691H96.744z"/>
	<path display="inline" fill="#231F20" d="M117.471,36.624c4.545,0,7.712,3.409,7.712,8.54c0,5.131-3.202,8.504-7.712,8.504
		c-4.51,0-7.747-3.373-7.747-8.504C109.724,40.033,112.926,36.624,117.471,36.624z M117.436,52.257c3.03,0,4.235-2.237,4.235-7.094
		c0-4.854-1.205-7.127-4.2-7.127c-2.995,0-4.201,2.272-4.201,7.127C113.27,49.983,114.509,52.257,117.436,52.257z"/>
	<path display="inline" fill="#231F20" d="M126.008,51.671l1.48-0.068c0.965-0.034,1.136-0.275,1.136-1.275V39.861
		c0-1.136-0.413-1.377-1.894-1.377c-0.31,0-0.654,0.035-1.033,0.035v-1.343l5.888-0.414v3.306c1.55-2.272,3.271-3.306,5.647-3.306
		c3.271,0,5.198,1.963,5.198,5.51v8.056c0,1,0.207,1.24,1.137,1.274l1.481,0.067v1.447h-8.333v-1.447l1.481-0.067
		c0.895-0.034,1.136-0.274,1.136-1.274v-8.194c0-2.066-1.136-3.237-3.167-3.237c-2.892,0-4.408,1.928-4.408,5.75v5.681
		c0,0.965,0.138,1.24,1.137,1.274l1.446,0.067v1.447h-8.333L126.008,51.671L126.008,51.671z"/>
	<path display="inline" fill="#231F20" d="M146.733,40.102c-0.241-0.516-0.517-0.93-0.791-1.102
		c-0.414-0.275-1.033-0.379-1.86-0.379v-1.446h8.023v1.446c-0.345,0-0.62,0-0.861,0c-0.999,0-1.377,0.104-1.377,0.723
		c0,0.207,0.138,0.551,0.345,1.068l3.65,8.401l3.443-8.263c0.068-0.206,0.172-0.413,0.172-0.757c0-0.964-0.689-1.136-2.411-1.171
		v-1.446h6.646v1.446c-1.274,0-2.032,0.586-2.583,1.86l-5.818,13.532c-1.79,4.165-3.685,6.266-6.68,6.266
		c-2.031,0-3.168-1.032-3.168-2.651c0-1.135,0.861-2.029,2.066-2.029c1.102,0,1.79,0.654,1.79,1.688
		c0,0.586-0.275,0.859-0.275,0.998c0,0.24,0.206,0.379,0.619,0.379c1.102,0,2.824-1.824,4.305-5.406l0.241-0.551L146.733,40.102z"/>
	<path display="inline" fill="#231F20" d="M167.906,51.498h1.791c1.377,0,1.825-0.31,1.825-1.651V31.529
		c0-1.343-0.448-1.653-1.825-1.653h-1.791v-1.619h13.015c4.89,0,7.438,2.135,7.438,6.06c0,2.961-1.928,4.924-5.785,5.75
		c4.751,0.621,7.059,2.72,7.059,6.371c0,4.166-3.237,6.681-9.124,6.681h-12.603V51.498L167.906,51.498z M175.206,39.482h2.755
		c4.441,0,6.404-1.033,6.404-4.855c0-3.478-1.549-4.82-5.268-4.82h-2.169c-1.412,0-1.722,0.344-1.722,1.515V39.482z M175.206,49.88
		c0,1.272,0.345,1.617,1.895,1.617h2.444c4.097,0,5.888-1.445,5.888-5.162c0-3.926-2.169-5.338-7.127-5.338h-3.1V49.88z"/>
	<path display="inline" fill="#231F20" d="M197.619,51.603l2.101,0.068v1.447h-9.056v-1.447l1.618-0.068
		c0.964-0.034,1.136-0.311,1.136-1.275V39.861c0-1.205-0.447-1.342-2.065-1.342c-0.311,0-0.655,0-1.034,0v-1.343l5.991-0.414v4.854
		c1.067-3.27,2.823-4.958,5.027-4.958c1.86,0,3.134,1.274,3.134,2.928c0,1.274-0.861,2.134-1.998,2.134
		c-1.272,0-2.031-0.792-2.031-1.963c0-0.619,0.242-1.171,0.688-1.48c-0.067,0-0.137,0-0.206,0c-2.169,0-4.441,3.271-4.441,8.366
		v3.685C196.483,51.292,196.655,51.568,197.619,51.603z"/>
	<path display="inline" fill="#231F20" d="M212.629,36.624c4.546,0,7.713,3.409,7.713,8.54c0,5.131-3.201,8.504-7.713,8.504
		c-4.51,0-7.746-3.373-7.746-8.504C204.883,40.033,208.085,36.624,212.629,36.624z M212.596,52.257c3.03,0,4.234-2.237,4.234-7.094
		c0-4.854-1.204-7.127-4.201-7.127c-2.995,0-4.199,2.272-4.199,7.127C208.43,49.983,209.669,52.257,212.596,52.257z"/>
	<path display="inline" fill="#231F20" d="M229.637,36.624c4.547,0,7.713,3.409,7.713,8.54c0,5.131-3.201,8.504-7.713,8.504
		c-4.51,0-7.748-3.373-7.748-8.504C221.889,40.033,225.092,36.624,229.637,36.624z M229.604,52.257c3.029,0,4.234-2.237,4.234-7.094
		c0-4.854-1.205-7.127-4.201-7.127c-2.994,0-4.201,2.272-4.201,7.127C225.436,49.983,226.676,52.257,229.604,52.257z"/>
	<path display="inline" fill="#231F20" d="M237.417,51.671l1.549-0.068c0.966-0.034,1.173-0.311,1.173-1.275V30.736
		c0-1.136-0.412-1.376-1.896-1.376c-0.274,0-0.618,0.034-0.997,0.034v-1.342l6.025-0.414v17.043l5.303-4.854
		c0.24-0.24,0.412-0.585,0.412-0.757c0-0.448-0.551-0.585-1.756-0.585h-1.103v-1.309h8.813v1.309c-0.067,0-0.139,0-0.205,0
		c-2.238,0-3.58,1.067-5.338,2.686l-1.756,1.618l5.405,7.196c0.861,1.17,1.825,1.619,3.408,1.688v1.447h-8.883v-1.447l1.032-0.068
		c0.793-0.034,1.205-0.104,1.205-0.516c0-0.276-0.139-0.449-0.31-0.689l-4.133-5.578l-2.101,1.859v3.648c0,1,0.207,1.24,1.17,1.274
		l1.517,0.067v1.447h-8.54v-1.447H237.417z"/>
	<path display="inline" fill="#B81F3A" d="M270.09,47.228c0,3.273,0.725,4.375,4.098,4.408v1.482h-9.984v-1.482
		c3.479-0.033,4.133-1.17,4.133-4.408V31.529c0-1.343-0.447-1.653-1.825-1.653h-2.03v-1.619h8.607l6.68,19.005l6.473-19.005h8.402
		v1.619h-1.826c-1.377,0-1.791,0.31-1.791,1.653v18.317c0,1.343,0.414,1.651,1.791,1.651h1.826v1.621h-11.156v-1.621h2.064
		c1.379,0,1.827-0.31,1.827-1.651V30.46l-7.714,22.659h-1.344l-8.229-22.659L270.09,47.228L270.09,47.228z"/>
	<path display="inline" fill="#B81F3A" d="M297.634,46.093c0,3.65,1.857,5.75,4.578,5.75c2.376,0,4.201-1.238,5.476-3.719
		l1.205,0.688c-1.516,3.237-3.959,4.854-7.267,4.854c-4.337,0-7.472-3.34-7.472-8.504c0-5.13,3.1-8.54,7.472-8.54
		c4.442,0,7.267,3.064,7.267,8.163c0,0.205,0,0.41,0,0.617h-11.226C297.667,45.646,297.634,45.853,297.634,46.093z M304.105,43.924
		c0.896,0,1.205-0.206,1.205-1.103c0-3.133-1.309-4.82-3.648-4.82c-2.618,0-3.893,1.963-3.961,5.922L304.105,43.924L304.105,43.924z
		"/>
	<path display="inline" fill="#B81F3A" d="M317.121,53.601c-3.893,0-6.923-3.342-6.923-8.438c0-5.097,3.134-8.54,6.989-8.54
		c2.03,0,3.514,0.758,4.787,2.479v-8.367c0-1.204-0.483-1.343-2.136-1.343c-0.345,0-0.758,0-1.206,0v-1.342l6.508-0.414V50.19
		c0,1.204,0.379,1.444,1.824,1.444c0.241,0,0.52,0,0.794,0v1.482l-5.579,0.377v-2.927C320.907,52.601,319.219,53.601,317.121,53.601
		z M317.877,51.707c2.928,0,4.098-2.17,4.098-6.611c0-4.442-1.136-6.576-4.131-6.576c-2.894,0-4.1,2.134-4.1,6.576
		C313.744,49.571,314.882,51.707,317.877,51.707z"/>
	<path display="inline" fill="#B81F3A" d="M328.927,51.671l1.653-0.068c0.965-0.034,1.172-0.311,1.172-1.275V39.861
		c0-1.136-0.413-1.377-1.895-1.377c-0.274,0-0.618,0.035-0.998,0.035v-1.343l6.023-0.414v13.565c0,1,0.208,1.24,1.172,1.274
		l1.516,0.067v1.447h-8.645L328.927,51.671L328.927,51.671z M335.299,30.254c0,1.136-0.931,2.031-2.066,2.031
		c-1.135,0-2.03-0.963-2.03-2.031c0-1.102,0.929-2.032,2.03-2.032C334.335,28.222,335.299,29.118,335.299,30.254z"/>
	<path display="inline" fill="#B81F3A" d="M345.178,53.667c-4.337,0-7.471-3.236-7.471-8.229c0-5.336,3.271-8.814,7.988-8.814
		c3.373,0,5.543,1.825,5.543,3.959c0,1.55-0.965,2.478-2.307,2.478c-1.17,0-2.031-0.756-2.031-1.892
		c0-1.309,1.067-1.549,1.067-2.031c0-0.62-0.86-1.137-2.411-1.137c-2.856,0-4.305,2.307-4.305,6.887c0,4.476,1.549,6.68,4.752,6.68
		c2.066,0,3.477-1.138,4.407-3.513l1.239,0.619C350.378,52.083,348.348,53.667,345.178,53.667z"/>
	<path display="inline" fill="#B81F3A" d="M352.545,51.671l1.653-0.068c0.965-0.034,1.171-0.311,1.171-1.275V39.861
		c0-1.136-0.412-1.377-1.895-1.377c-0.274,0-0.619,0.035-0.998,0.035v-1.343l6.024-0.414v13.565c0,1,0.206,1.24,1.172,1.274
		l1.515,0.067v1.447h-8.644L352.545,51.671L352.545,51.671z M358.916,30.254c0,1.136-0.932,2.031-2.064,2.031
		c-1.139,0-2.031-0.963-2.031-2.031c0-1.102,0.929-2.032,2.031-2.032C357.951,28.223,358.916,29.118,358.916,30.254z"/>
	<path display="inline" fill="#B81F3A" d="M362.324,51.671l1.48-0.068c0.963-0.034,1.135-0.275,1.135-1.275V39.861
		c0-1.136-0.412-1.377-1.894-1.377c-0.31,0-0.653,0.035-1.032,0.035v-1.343l5.887-0.414v3.306c1.55-2.272,3.272-3.306,5.647-3.306
		c3.271,0,5.198,1.963,5.198,5.51v8.056c0,1,0.207,1.24,1.138,1.274l1.479,0.067v1.447h-8.334v-1.447l1.482-0.067
		c0.895-0.034,1.135-0.274,1.135-1.274v-8.194c0-2.066-1.135-3.237-3.166-3.237c-2.894,0-4.406,1.928-4.406,5.75v5.681
		c0,0.965,0.137,1.24,1.135,1.274l1.445,0.067v1.447h-8.331L362.324,51.671L362.324,51.671z"/>
	<path display="inline" fill="#B81F3A" d="M384.667,46.093c0,3.65,1.86,5.75,4.579,5.75c2.377,0,4.202-1.238,5.477-3.719
		l1.205,0.688c-1.516,3.237-3.961,4.854-7.266,4.854c-4.34,0-7.473-3.34-7.473-8.504c0-5.13,3.1-8.54,7.473-8.54
		c4.441,0,7.266,3.064,7.266,8.163c0,0.205,0,0.41,0,0.617h-11.226C384.702,45.646,384.667,45.853,384.667,46.093z M391.141,43.924
		c0.896,0,1.205-0.206,1.205-1.103c0-3.133-1.309-4.82-3.648-4.82c-2.617,0-3.891,1.963-3.959,5.922L391.141,43.924L391.141,43.924z
		"/>
</g>
<g display="none">
	<g display="inline">
		<path fill="#B81F3A" d="M54.776,65.292L42.547,8.432c-0.513-0.052-1.03-0.083-1.544-0.124l10.274,60.453
			C52.516,67.683,53.684,66.522,54.776,65.292z"/>
		<path fill="#B81F3A" d="M64.121,43.267l-14.118-33.6c-0.541-0.123-1.087-0.229-1.634-0.336l14.965,39.67
			C63.764,47.126,64.022,45.208,64.121,43.267z"/>
		<path fill="#B81F3A" d="M43.223,74.169c0.923-0.459,1.821-0.969,2.707-1.502L38.92,8.151c-0.552-0.025-1.105-0.023-1.662-0.037
			l4.251,66.846C42.077,74.71,42.643,74.455,43.223,74.169z"/>
		<path fill="#B81F3A" d="M61.088,55.602L46.21,8.925c-0.52-0.086-1.043-0.152-1.565-0.225l14.101,51.285
			C59.622,58.578,60.407,57.113,61.088,55.602z"/>
		<path fill="#B81F3A" d="M64.181,15.265c-3.573-2.18-7.614-3.822-11.894-5.001l11.89,24.907L64.181,15.265z"/>
	</g>
	<g display="inline">
		<path fill="#B81F3A" d="M6.075,15.265v25.927c-0.199,13.964,8.793,26.972,20.956,32.978c2.678,1.317,5.159,2.231,8.096,2.922
			V8.073C24.698,8.157,14.248,10.626,6.075,15.265z M24.032,38.96l1.624,4.986l-4.241-3.083l-4.232,3.083l1.621-4.986l-4.217-3.071
			H19.8l1.615-4.957l1.625,4.957h5.206L24.032,38.96z"/>
	</g>
</g>
<g>
	<g>
		<path fill="#FFFFFF" d="M86.789,94.158C26.119,70.511,45.024-10.144,45.024-10.144c10.957-5.764,35.803-7.832,41.765-7.832
			c5.961,0,30.807,2.068,41.764,7.832C128.553-10.144,147.457,70.511,86.789,94.158z"/>
		<path fill="#005696" d="M131.08-10.735l-0.273-1.156l-1.05-0.552c-11.592-6.095-37.145-8.128-42.974-8.128
			c-5.826,0-31.384,2.034-42.976,8.128l-1.051,0.554l-0.272,1.155c-0.196,0.843-4.796,20.883-1.917,44.197
			c1.707,13.799,5.706,25.844,11.885,35.797C60.232,81.787,71.465,90.98,85.84,96.582l0.943,0.369l0.946-0.369
			c14.372-5.602,25.604-14.795,33.383-27.322c6.18-9.953,10.179-21.998,11.882-35.797C135.878,10.148,131.276-9.892,131.08-10.735z
			 M86.784,94.162C26.113,70.515,45.019-10.14,45.019-10.14c10.958-5.763,35.803-7.831,41.765-7.831
			c5.96,0,30.807,2.068,41.765,7.831C128.548-10.14,147.452,70.515,86.784,94.162z"/>
		<g>
			<g>
				<path fill="#005696" d="M48.785,49.291c2.674,8.803,6.888,17.441,13.376,24.908l-5.017-27.614
					c-3.687,1.036-6.577,2.042-8.354,2.704L48.785,49.291z"/>
			</g>
			<g>
				<g>
					<path fill="#005696" d="M74.427,27.362l8.117-42.1c-6.151,0.474-16.372,1.519-24.981,3.583L64.349,28.9
						c3.407-0.654,6.781-1.168,10.029-1.533L74.427,27.362z M72.261,4.62c0,1.052,0.218,1.932,0.477,2.044
						c0,0-1.147,0.792-1.48,1.122c-0.329,0.333-1.782,2.092-1.782,2.092s-1.454-1.759-1.785-2.092
						c-0.33-0.33-1.476-1.122-1.476-1.122c0.258-0.112,0.474-0.992,0.474-2.044c0-1.275-0.741-2.415-1.823-2.415
						c-1.571,0-1.782,1.077-1.782,1.077s-1.449-1.361-1.449-2.676c0-2.989,1.609-2.787,2.303-2.787c1.604,0,3.791,2.501,3.791,2.501
						c-0.242-0.548-0.658-1.518-0.781-1.824c-0.048-0.125-0.115-0.274-0.18-0.446c-0.233-0.61-0.481-1.52-0.08-2.758
						c0.371-1.153,1.167-1.65,1.82-2.454c0.699-0.859,0.967-1.134,0.967-1.134s0.269,0.274,0.964,1.134
						c0.654,0.804,1.452,1.301,1.821,2.454c0.402,1.238,0.155,2.147-0.08,2.758c-0.064,0.172-0.129,0.322-0.18,0.446
						c-0.124,0.306-0.538,1.276-0.78,1.824c0,0,2.186-2.501,3.792-2.501c0.696,0,2.304-0.202,2.304,2.787
						c0,1.314-1.45,2.676-1.45,2.676s-0.212-1.077-1.782-1.077C72.999,2.205,72.261,3.344,72.261,4.62z"/>
				</g>
			</g>
			<g>
				<path fill="#005696" d="M55.308,35.924c1.511-0.396,3.033-0.771,4.521-1.111l0.389-0.089c0.634-0.144,1.282-0.284,1.938-0.424
					l0.091-0.02c0.164-0.035,0.33-0.071,0.495-0.105c0.916-0.189,1.683-0.343,2.417-0.482l0.113-0.021l0.001,0.004
					c2.773-0.527,5.515-0.96,8.147-1.288l0.038-0.003l0.07-0.365l0.65-3.377c-3.128,0.361-6.379,0.86-9.663,1.489
					c-3.322,0.638-6.667,1.403-9.94,2.275c-3.076,0.82-6.05,1.716-8.845,2.665c-0.014,0.006-0.03,0.011-0.043,0.013h-0.006
					c0.103,0.707,0.285,2.014,0.563,3.53c2.806-0.937,5.904-1.855,8.959-2.661L55.308,35.924z"/>
			</g>
			<g>
				<path fill="#005696" d="M66.957,44.282l1.968,11.774l2.383-12.518c-1.396,0.209-2.82,0.453-4.349,0.741L66.957,44.282z"/>
			</g>
			<g>
				<path fill="#005696" d="M58.332,40.27l0.106-0.028c0.775-0.204,1.548-0.398,2.296-0.58l0.16-0.039
					c0.8-0.194,1.604-0.381,2.389-0.555l0.15-0.034c0.893-0.196,1.721-0.372,2.533-0.534c2.223-0.447,4.406-0.824,6.494-1.126
					l0.054-0.007l0.699-3.686c-2.549,0.33-5.185,0.756-7.837,1.262c-0.839,0.159-1.688,0.33-2.598,0.523l-0.149,0.03
					c-0.774,0.164-1.567,0.339-2.357,0.521l-0.141,0.032c-1.571,0.36-3.137,0.747-4.659,1.149c-2.905,0.764-5.833,1.643-8.956,2.686
					l-0.039,0.014c0.123,0.637,0.25,1.339,0.395,1.979c0.04,0.172,0.077,0.336,0.112,0.493c0.096,0.437,0.203,0.876,0.307,1.313
					c2.742-0.987,5.786-1.954,8.806-2.804C56.896,40.652,57.62,40.457,58.332,40.27z"/>
			</g>
			<g>
				<path fill="#005696" d="M63.734,40.248L63.45,40.31c-2.374,0.533-4.767,1.139-7.109,1.801c-3.024,0.854-5.968,1.791-8.752,2.792
					l-0.01,0.003c0.262,1.056,0.544,2.111,0.846,3.164c0.028-0.016,0.052-0.033,0.096-0.049c5.028-1.846,13.109-4.348,23.035-5.792
					l0.037-0.003l0.676-3.564c-2.028,0.301-4.124,0.67-6.246,1.1C65.239,39.921,64.468,40.083,63.734,40.248z"/>
			</g>
			<g>
				<path fill="#005696" d="M54.346,31.192L47.292-7.631c-0.018,0.011-0.038,0.019-0.056,0.029c0,0-4.525,19.36-1.704,41.451
					c2.809-0.952,5.771-1.845,8.807-2.656C54.34,31.193,54.343,31.193,54.346,31.192z"/>
			</g>
			<g>
				<path fill="#005696" d="M89.147,26.693l-2.359-11.825l-2.341,11.824c0.753-0.019,1.531-0.037,2.305-0.037
					C87.555,26.655,88.344,26.674,89.147,26.693z"/>
			</g>
			<g>
				<path fill="#005696" d="M90.188,31.582c-0.113-0.542-0.65-3.099-0.781-3.641l-0.033-0.001c-0.812-0.021-1.681-0.042-2.564-0.042
					c-0.894,0-1.768,0.021-2.588,0.042l-0.03,0.001c-0.124,0.542-0.657,3.1-0.77,3.641c1.223-0.041,2.332-0.063,3.388-0.063
					C87.854,31.519,88.959,31.54,90.188,31.582z"/>
			</g>
			<g>
				<polygon fill="#005696" points="83.402,31.679 83.4,31.682 83.402,31.682 				"/>
			</g>
			<g>
				<path fill="#005696" d="M86.809,36.297c1.29,0,2.669,0.036,4.333,0.116l-0.706-3.577l-0.075-0.002
					c-1.361-0.05-2.489-0.074-3.552-0.074c-1.076,0-2.212,0.024-3.57,0.075l-0.067,0.002l-0.71,3.578l0.005-0.001
					C84.159,36.335,85.538,36.297,86.809,36.297z"/>
			</g>
			<g>
				<path fill="#005696" d="M92.097,41.259l-0.708-3.588l-0.051-0.003c-1.734-0.087-3.174-0.128-4.529-0.128
					c-1.369,0-2.82,0.041-4.568,0.131h-0.027l-0.709,3.584c1.917-0.1,3.631-0.148,5.248-0.148
					C88.433,41.107,90.181,41.158,92.097,41.259z"/>
			</g>
			<g>
				<g>
					<path fill="#005696" d="M92.316,42.51c-1.963-0.108-3.763-0.161-5.507-0.161c-1.739,0-3.54,0.055-5.509,0.162l-0.029,0.002
						l-8.31,41.395c4.048,2.83,8.638,5.313,13.86,7.348c5.231-2.039,9.833-4.529,13.886-7.365l-8.364-41.379L92.316,42.51z
						 M83.833,79.822c-1.479,0-5.186-1.436-5.481-7.211c-0.215-4.221,1.011-5.338,1.011-5.338l2.271,4.146
						c0,5.951,4.29,6.074,4.29,6.074C85.922,79.888,83.833,79.822,83.833,79.822z M87.262,81.505h-1.05v-6.148
						c-0.566-0.246-1.818-0.865-1.789-3.18c0.037-2.738-0.331-4.604-0.685-5.877c-0.361-1.299-2.561-2.668-2.561-2.668
						c2.236-2.49,4.194,0.885,4.113,0.465c-0.152-0.752,0.251-2.125,0.539-2.813c0.288-0.684,0.958-1.537,0.958-1.537
						s0.671,0.854,0.959,1.537c0.291,0.688,0.694,2.061,0.542,2.813c-0.083,0.42,1.876-2.955,4.112-0.465c0,0-2.2,1.369-2.561,2.668
						c-0.353,1.273-0.721,3.139-0.685,5.877c0.032,2.475-1.4,3.012-1.893,3.227V81.505z M95.214,72.611
						c-0.297,5.775-4.005,7.211-5.484,7.211c0,0-2.086,0.066-2.086-2.328c0,0,4.288-0.123,4.288-6.074l2.271-4.146
						C94.203,67.273,95.429,68.39,95.214,72.611z"/>
				</g>
			</g>
			<g>
				<path fill="#005696" d="M118.18,37.216c-1.534-0.406-3.092-0.793-4.63-1.148l-0.197-0.045c-0.702-0.16-1.418-0.318-2.145-0.475
					l-0.433-0.092c-0.902-0.189-1.706-0.354-2.458-0.498c-2.662-0.51-5.314-0.938-7.883-1.27l-0.057-0.008l0.713,3.688l0.128,0.019
					c2.07,0.301,4.15,0.662,6.351,1.105l0.13,0.023c3.269,0.66,6.591,1.467,9.875,2.396c2.943,0.833,5.842,1.76,8.62,2.752
					l0.16,0.056c0.297-1.276,0.569-2.554,0.81-3.825l-0.146-0.048C124.18,38.904,121.209,38.019,118.18,37.216z"/>
			</g>
			<g>
				<path fill="#005696" d="M117.343,42.139h-0.01l-0.03-0.013c-0.688-0.195-1.429-0.396-2.244-0.613l-0.047-0.012
					c-0.782-0.209-1.581-0.412-2.369-0.605c-1.697-0.416-3.42-0.801-5.139-1.149c-2.074-0.419-4.13-0.78-6.113-1.075l-0.05-0.007
					l0.774,3.595l0.042,0.008c1.434,0.209,2.917,0.463,4.66,0.795l0,0l0.107,0.01c0.257,0.05,0.512,0.102,0.765,0.152l0.655,0.129
					c0.145,0.031,0.287,0.06,0.429,0.088c0.787,0.165,1.604,0.344,2.496,0.549c0.225,0.051,0.443,0.104,0.664,0.156
					c0.919,0.217,1.724,0.415,2.46,0.606c0.089,0.022,0.176,0.044,0.266,0.067c0.599,0.159,1.18,0.316,1.75,0.477l0.426,0.121
					c2.859,0.807,5.613,1.695,8.189,2.645c0.073,0.027,0.131,0.049,0.183,0.068c0.308-1.064,0.593-2.13,0.856-3.197l-0.188-0.065
					C123.111,43.878,120.239,42.96,117.343,42.139z"/>
			</g>
			<g>
				<path fill="#005696" d="M102.37,43.556l2.381,12.5l1.964-11.751c-0.001-0.001-0.002-0.001-0.002-0.001
					C105.206,44.015,103.783,43.772,102.37,43.556z"/>
			</g>
			<g>
				<path fill="#005696" d="M116.524,46.625l-5.002,27.531c6.455-7.449,10.657-16.055,13.329-24.826l-0.005-0.002
					C122.202,48.349,119.403,47.439,116.524,46.625z"/>
			</g>
			<g>
				<path fill="#005696" d="M128.108,33.902c2.836-22.113-1.701-41.504-1.701-41.504c-0.011-0.003-0.02-0.01-0.027-0.013
					l-7.06,38.856c0.002,0.001,0.004,0.001,0.008,0.003C122.345,32.054,125.301,32.948,128.108,33.902z"/>
			</g>
			<g>
				<g>
					<path fill="#005696" d="M109.319,28.937l6.794-40.083c-8.604-2.066-18.82-3.113-24.984-3.59l8.124,42.123l0.032,0.003
						C102.542,27.76,105.917,28.281,109.319,28.937z M98.459,2.445l1.468-0.842L96.31-0.481l0.601-0.204l-1.429-2.594l2.957-0.056
						l-0.121-0.625L102-1.833v-4.252l0.479,0.417l1.457-2.532l1.458,2.532l0.479-0.417v4.252l3.682-2.127l-0.121,0.625l2.959,0.056
						l-1.431,2.594l0.601,0.204l-3.618,2.084l1.467,0.842l-0.6,0.207l1.428,2.589l-2.96,0.058l0.125,0.623l-2.792-1.612v5.473
						h-0.637h-0.081h-0.635V4.31l-2.792,1.612l0.121-0.623l-2.958-0.058l1.432-2.589L98.459,2.445z"/>
				</g>
			</g>
			<g>
				<path fill="#005696" d="M119.038,32.456c-0.67-0.181-1.39-0.368-2.141-0.556l-0.229-0.057c-2.496-0.625-5.029-1.188-7.534-1.672
					c-3.285-0.636-6.53-1.143-9.645-1.506c0.078,0.551,0.542,3.172,0.641,3.726l0.033,0.004c2.668,0.335,5.432,0.773,8.218,1.305
					l0.128,0.022c0.775,0.146,1.574,0.31,2.447,0.492l0.449,0.096c0.834,0.178,1.572,0.342,2.258,0.499l0.073,0.018
					c0.688,0.157,1.429,0.333,2.261,0.54l0.61,0.153c0.563,0.143,1.114,0.284,1.653,0.427l0.066,0.016
					c0.047,0.011,0.094,0.022,0.138,0.035l0.079,0.021c3.024,0.805,5.961,1.68,8.735,2.605l0.106,0.033
					c0.208-1.175,0.386-2.346,0.551-3.511l-0.112-0.036C125.02,34.16,122.065,33.267,119.038,32.456z"/>
			</g>
			<polygon fill="#FFCE01" points="47.549,44.801 47.549,44.801 47.55,44.801 			"/>
			<path fill="#FFCE01" d="M89.143,26.687c-0.804-0.022-1.588-0.031-2.39-0.031c-0.774,0-1.552,0.019-2.305,0.037
				c-0.007,0-0.256,1.248-0.256,1.248l0.03-0.001c0.82-0.021,1.694-0.042,2.588-0.042c0.884,0,1.752,0.021,2.564,0.042l0.033,0.001
				C89.407,27.94,89.151,26.687,89.143,26.687z"/>
			<path fill="#FFCE01" d="M74.378,27.367c-3.248,0.365-6.622,0.879-10.029,1.533c0,0-0.001,0-0.001,0
				c-3.341,0.64-6.706,1.41-10.001,2.292c-0.003,0.001-0.006,0.001-0.008,0.001c-3.036,0.811-5.998,1.704-8.807,2.656
				c0.004,0.037,0.007,0.072,0.012,0.109c0.044,0.338,0.083,0.673,0.131,1.012c-0.002,0.002-0.006,0.002-0.007,0.003
				c0,0.002,0,0.005,0,0.005c0.005,0.031,0.01,0.072,0.014,0.105h0.006c0.014-0.002,0.03-0.007,0.043-0.013
				c2.795-0.948,5.77-1.845,8.845-2.665c3.273-0.873,6.618-1.638,9.94-2.275c3.284-0.629,6.535-1.128,9.663-1.489l0.248-1.279
				L74.378,27.367z"/>
			<path fill="#FFCE01" d="M45.543,33.958c-0.005,0.002-0.011,0.004-0.016,0.006l0.14,1.009c0.001-0.001,0.005-0.001,0.007-0.003
				C45.626,34.631,45.588,34.296,45.543,33.958z"/>
			<path fill="#FFCE01" d="M119.328,31.244c-0.003-0.002-0.006-0.002-0.008-0.003c-3.307-0.885-6.669-1.661-10-2.303l-0.001-0.001
				c-3.401-0.656-6.777-1.177-10.034-1.547l-0.032-0.003l0.021,0.112c0,0,0.199,1.054,0.203,1.054c-0.004,0,0.001,0.045,0.012,0.112
				c3.115,0.363,6.36,0.87,9.645,1.506c2.504,0.484,5.038,1.047,7.534,1.672l0.229,0.057c0.751,0.188,1.471,0.375,2.141,0.556
				c3.027,0.811,5.982,1.704,8.786,2.655l0.112,0.036c0.023-0.167,0.057-0.337,0.08-0.503c0.029-0.211,0.053-0.423,0.081-0.635
				c0.004-0.035,0.008-0.072,0.012-0.107C125.301,32.948,122.345,32.054,119.328,31.244z"/>
			<path fill="#FFCE01" d="M71.555,42.229c-9.925,1.444-18.006,3.946-23.035,5.792c-0.044,0.016-0.068,0.033-0.096,0.049
				c0.01,0.035,0.351,1.186,0.36,1.221l0.005-0.002c1.777-0.662,4.668-1.668,8.354-2.704c0.003-0.001,0.006-0.001,0.007-0.005
				c3.203-0.897,6.501-1.67,9.805-2.298l0.001-0.002c1.529-0.288,2.953-0.532,4.349-0.741l0.284-1.313L71.555,42.229z"/>
			<path fill="#FFCE01" d="M125.025,48.062c-2.576-0.949-5.33-1.838-8.189-2.645l-0.426-0.121c-0.569-0.16-1.151-0.317-1.75-0.477
				c-0.09-0.023-0.177-0.045-0.266-0.067c-0.736-0.191-1.541-0.39-2.46-0.606c-0.221-0.053-0.438-0.105-0.664-0.156
				c-0.893-0.205-1.709-0.384-2.496-0.549c-0.142-0.028-0.284-0.057-0.429-0.088l-0.655-0.129c-0.252-0.051-0.507-0.103-0.765-0.152
				l-0.107-0.01l0,0c-1.743-0.332-3.226-0.586-4.66-0.795l-0.042-0.008l0.025,0.112l0.207,1.071l0.022,0.113
				c1.413,0.216,2.836,0.459,4.342,0.748c0,0,0.001,0,0.002,0.001c3.297,0.632,6.594,1.411,9.797,2.318c0.004,0,0.009,0,0.013,0.001
				c2.878,0.814,5.678,1.725,8.321,2.703l0.005,0.002c0.01-0.033,0.022-0.068,0.032-0.102c0.1-0.33,0.201-0.662,0.297-0.994
				c0.01-0.033,0.018-0.07,0.028-0.104C125.156,48.111,125.099,48.089,125.025,48.062z"/>
			<path fill="#FFCE01" d="M124.892,49.232l0.295-0.996c-0.001,0-0.005,0-0.007-0.002c-0.097,0.332-0.197,0.664-0.297,0.994
				C124.886,49.23,124.89,49.23,124.892,49.232z"/>
			<path fill="#FFCE01" d="M92.097,41.259c-1.916-0.102-3.664-0.152-5.344-0.152c-1.617,0-3.331,0.049-5.248,0.148l-0.233,1.258
				l0.029-0.002c1.969-0.107,3.77-0.162,5.509-0.162c1.744,0,3.544,0.053,5.507,0.161l0.027,0.001L92.097,41.259z"/>
			<polygon fill="#FFCE01" points="92.112,41.367 92.308,42.331 92.118,41.367 			"/>
			<path fill="#FFCE01" d="M90.188,31.582c-1.228-0.042-2.333-0.063-3.378-0.063c-1.056,0-2.165,0.022-3.388,0.063
				c-0.012,0.053-0.249,1.256-0.249,1.256l0.067-0.002c1.358-0.05,2.494-0.075,3.57-0.075c1.063,0,2.191,0.024,3.552,0.074
				l0.075,0.002C90.436,32.837,90.201,31.646,90.188,31.582z"/>
			<path fill="#FFCE01" d="M73.421,32.387c-2.633,0.328-5.375,0.761-8.147,1.288l-0.001-0.004l-0.113,0.021
				c-0.734,0.14-1.501,0.293-2.417,0.482c-0.166,0.034-0.331,0.07-0.495,0.105l-0.091,0.02c-0.656,0.14-1.304,0.28-1.938,0.424
				l-0.389,0.089c-1.489,0.341-3.01,0.715-4.521,1.111l-0.105,0.028c-3.055,0.806-6.153,1.725-8.959,2.661
				c0.006,0.036,0.012,0.069,0.018,0.108c0.001,0,0.003-0.002,0.005-0.004c0.063,0.35,0.124,0.698,0.187,1.047c0,0,0,0-0.002,0
				c0.009,0.043,0.018,0.09,0.026,0.133l0.039-0.014c3.123-1.043,6.051-1.922,8.956-2.686c1.521-0.402,3.088-0.789,4.659-1.149
				l0.141-0.032c0.79-0.182,1.583-0.356,2.357-0.521l0.149-0.03c0.91-0.193,1.758-0.364,2.598-0.523
				c2.652-0.506,5.288-0.932,7.837-1.262l0.021-0.111c-0.002,0-0.003,0.002-0.005,0.002l0.208-1.075c0.002,0,0.002,0,0.002,0
				l0.022-0.113L73.421,32.387z"/>
			<polygon fill="#FFCE01" points="73.437,32.497 73.435,32.497 73.228,33.572 73.233,33.57 73.437,32.497 			"/>
			<path fill="#FFCE01" d="M46.262,38.722c0.063,0.337,0.117,0.667,0.189,1.043c0.002,0,0.002,0,0.002,0
				c-0.063-0.349-0.124-0.697-0.187-1.047C46.265,38.72,46.263,38.722,46.262,38.722z"/>
			<polygon fill="#FFCE01" points="46.453,39.765 46.453,39.765 46.451,39.765 			"/>
			<path fill="#FFCE01" d="M127.278,38.625c-2.774-0.926-5.711-1.801-8.735-2.605l-0.079-0.021c-0.044-0.013-0.09-0.024-0.138-0.035
				l-0.066-0.016c-0.539-0.143-1.09-0.284-1.653-0.427l-0.61-0.153c-0.832-0.207-1.573-0.383-2.261-0.54l-0.073-0.018
				c-0.687-0.157-1.424-0.321-2.258-0.499l-0.449-0.096c-0.873-0.183-1.672-0.346-2.447-0.492l-0.128-0.022
				c-2.787-0.532-5.55-0.969-8.218-1.305l-0.033-0.004c0.011,0.067,0.02,0.113,0.02,0.113l0.205,1.066l0.021,0.111l0.057,0.008
				c2.569,0.332,5.222,0.76,7.883,1.27c0.752,0.145,1.556,0.309,2.458,0.498l0.433,0.092c0.727,0.156,1.443,0.314,2.145,0.475
				l0.197,0.045c1.538,0.355,3.096,0.742,4.63,1.148c3.029,0.803,6,1.688,8.838,2.632l0.146,0.048
				c0.008-0.036,0.015-0.072,0.021-0.109c0.063-0.338,0.123-0.679,0.184-1.021c0.006-0.036,0.01-0.069,0.017-0.108L127.278,38.625z"
				/>
			<path fill="#FFCE01" d="M127.194,39.791l0.174-1.024c-0.061,0.342-0.121,0.683-0.184,1.021
				C127.188,39.789,127.19,39.791,127.194,39.791z"/>
			<path fill="#FFCE01" d="M91.142,36.414c-1.664-0.08-3.042-0.116-4.333-0.116c-1.271,0-2.65,0.038-4.342,0.117l-0.005,0.001
				l-0.021,0.107l-0.204,1.039l-0.023,0.109h0.027c1.748-0.09,3.199-0.131,4.568-0.131c1.354,0,2.795,0.041,4.529,0.128l0.051,0.003
				L91.142,36.414z"/>
			<path fill="#FFCE01" d="M72.459,37.374c-2.088,0.302-4.271,0.679-6.494,1.126c-0.812,0.162-1.641,0.338-2.533,0.534l-0.15,0.034
				c-0.785,0.174-1.588,0.36-2.389,0.555l-0.16,0.039c-0.748,0.182-1.521,0.376-2.296,0.58l-0.106,0.028
				c-0.712,0.187-1.436,0.382-2.235,0.608c-3.02,0.85-6.064,1.816-8.806,2.804c0.081,0.349,0.157,0.699,0.243,1.046
				c0.006,0.024,0.011,0.05,0.017,0.073c0.01,0.036,0.02,0.071,0.028,0.104l0.01-0.003c2.785-1.001,5.729-1.938,8.752-2.792
				c2.343-0.662,4.735-1.268,7.109-1.801l0.285-0.063c0.734-0.164,1.504-0.326,2.287-0.486c2.123-0.43,4.218-0.799,6.246-1.1
				c0.012-0.002,0.246-1.295,0.246-1.295L72.459,37.374z"/>
			<polygon fill="#FFCE01" points="47.55,44.801 47.549,44.801 47.549,44.801 			"/>
			<path fill="#FFCE01" d="M47.534,44.728c0.004,0.024,0.01,0.051,0.015,0.073h0.001C47.544,44.778,47.54,44.752,47.534,44.728z"/>
			<path fill="#FFCE01" d="M126.193,43.666c-2.777-0.992-5.676-1.919-8.62-2.752c-3.284-0.93-6.606-1.736-9.875-2.396l-0.13-0.023
				c-2.201-0.443-4.281-0.805-6.351-1.105l-0.128-0.019l0.021,0.112l0.208,1.068l0.023,0.114l0.05,0.007
				c1.983,0.295,4.039,0.656,6.113,1.075c1.718,0.349,3.442,0.733,5.139,1.149c0.789,0.193,1.587,0.396,2.369,0.605l0.047,0.012
				c0.814,0.217,1.555,0.418,2.244,0.613l0.03,0.013h0.01c2.896,0.821,5.768,1.739,8.533,2.729l0.188,0.065
				c0.009-0.035,0.019-0.068,0.029-0.106c0.082-0.331,0.159-0.665,0.236-0.997c0.008-0.037,0.015-0.071,0.024-0.108L126.193,43.666z
				"/>
			<path fill="#FFCE01" d="M75.866,3.282c0,0,1.45-1.361,1.45-2.676c0-2.989-1.608-2.787-2.304-2.787
				c-1.605,0-3.792,2.501-3.792,2.501c0.242-0.548,0.657-1.518,0.78-1.824c0.05-0.125,0.115-0.274,0.18-0.446
				c0.234-0.61,0.482-1.52,0.08-2.758c-0.369-1.153-1.167-1.65-1.821-2.454c-0.696-0.859-0.964-1.134-0.964-1.134
				s-0.268,0.274-0.967,1.134c-0.652,0.804-1.449,1.301-1.82,2.454c-0.401,1.238-0.154,2.147,0.08,2.758
				c0.064,0.172,0.131,0.322,0.18,0.446c0.123,0.306,0.539,1.276,0.781,1.824c0,0-2.187-2.501-3.791-2.501
				c-0.693,0-2.303-0.202-2.303,2.787c0,1.314,1.449,2.676,1.449,2.676s0.211-1.077,1.782-1.077c1.082,0,1.823,1.14,1.823,2.415
				c0,1.052-0.216,1.932-0.474,2.044c0,0,1.146,0.792,1.476,1.122c0.331,0.333,1.785,2.092,1.785,2.092s1.454-1.759,1.782-2.092
				c0.333-0.33,1.48-1.122,1.48-1.122c-0.259-0.112-0.477-0.992-0.477-2.044c0-1.275,0.738-2.415,1.823-2.415
				C75.654,2.205,75.866,3.282,75.866,3.282z"/>
			<path fill="#FFCE01" d="M87.644,77.494c0,2.395,2.086,2.328,2.086,2.328c1.479,0,5.187-1.436,5.484-7.211
				c0.215-4.221-1.012-5.338-1.012-5.338l-2.271,4.146C91.932,77.371,87.644,77.494,87.644,77.494z"/>
			<path fill="#FFCE01" d="M81.633,71.419l-2.271-4.146c0,0-1.226,1.117-1.011,5.338c0.295,5.775,4.002,7.211,5.481,7.211
				c0,0,2.09,0.066,2.09-2.328C85.922,77.494,81.633,77.371,81.633,71.419z"/>
			<path fill="#FFCE01" d="M89.154,72.177c-0.036-2.738,0.332-4.604,0.685-5.877c0.361-1.299,2.561-2.668,2.561-2.668
				c-2.236-2.49-4.195,0.885-4.112,0.465c0.152-0.752-0.251-2.125-0.542-2.813c-0.288-0.684-0.959-1.537-0.959-1.537
				s-0.67,0.854-0.958,1.537c-0.288,0.688-0.691,2.061-0.539,2.813c0.081,0.42-1.876-2.955-4.113-0.465c0,0,2.199,1.369,2.561,2.668
				c0.354,1.273,0.722,3.139,0.685,5.877c-0.029,2.314,1.223,2.934,1.789,3.18v6.148h1.05v-6.102
				C87.754,75.189,89.187,74.652,89.154,72.177z"/>
			<polygon fill="#FFCE01" points="100.589,5.299 100.468,5.922 103.261,4.31 103.261,9.783 103.896,9.783 103.976,9.783 
				104.613,9.783 104.613,4.31 107.405,5.922 107.28,5.299 110.24,5.241 108.812,2.652 109.412,2.445 107.944,1.604 111.563,-0.481 
				110.961,-0.685 112.392,-3.279 109.433,-3.334 109.554,-3.959 105.873,-1.833 105.873,-6.084 105.394,-5.667 103.936,-8.199 
				102.479,-5.667 102,-6.084 102,-1.833 98.318,-3.959 98.439,-3.334 95.482,-3.279 96.911,-0.685 96.31,-0.481 99.928,1.604 
				98.459,2.445 99.063,2.652 97.631,5.241 			"/>
		</g>
	</g>
	<g>
		<path fill="#58595B" d="M177.997,25.498c0,4.826-3.007,7.943-7.662,7.943c-4.626,0-7.615-3.118-7.615-7.943V3.024h-4.423v22.754
			c0,6.786,5.063,11.711,12.038,11.711c7.003,0,12.085-4.925,12.085-11.711V3.024h-4.423V25.498z"/>
		<path fill="#58595B" d="M193.389,22.597c0-3.62,1.923-5.696,5.275-5.696c3.371,0,5.229,2.022,5.229,5.696v14.612h4.236V22.035
			c0-2.837-0.848-5.099-2.514-6.717c-1.491-1.491-3.637-2.279-6.203-2.279c-2.356,0-4.417,0.752-6.024,2.187v-1.907h-4.236v23.89
			h4.236V22.597z"/>
		<rect x="214.365" y="2.978" fill="#58595B" width="4.657" height="4.657"/>
		<rect x="214.553" y="13.319" fill="#58595B" width="4.235" height="23.89"/>
		<polygon fill="#58595B" points="234.926,37.208 243.716,13.319 239.135,13.319 233.129,30.891 227.167,13.319 222.586,13.319 
			231.326,37.208 		"/>
		<path fill="#58595B" d="M255.387,13.039c-6.191,0-9.887,4.57-9.887,12.226c0,7.884,3.728,12.226,10.494,12.226
			c4.203,0,6.456-1.41,8.729-3.684l0.327-0.327l-2.945-2.585l-0.287,0.287c-1.865,1.865-3.311,2.494-5.73,2.494
			c-3.973,0-6.213-2.512-6.345-7.088h15.528v-1.978C265.271,17.472,261.484,13.039,255.387,13.039z M249.76,23.192
			c0.088-1.523,0.2-2.143,0.645-3.234c0.833-1.973,2.742-3.198,4.982-3.198s4.148,1.225,4.979,3.193
			c0.446,1.096,0.56,1.716,0.646,3.239H249.76z"/>
		<path fill="#58595B" d="M281.02,13.039c-2.379,0-4.58,0.863-6.023,2.31v-2.029h-4.236v23.89h4.236V22.644
			c0-3.382,2.092-5.743,5.088-5.743c1.64,0,2.463,0.35,3.671,1.557l0.31,0.309l3.088-3.145l-0.305-0.304
			C285.25,13.72,283.507,13.039,281.02,13.039z"/>
		<path fill="#58595B" d="M307.377,30.037c0-5.367-4.098-6.369-7.182-6.656l-3.699-0.327c-3.195-0.258-3.625-1.63-3.625-2.938
			c0-2.165,1.674-3.356,4.713-3.356c2.4,0,4.373,0.583,5.865,1.734l0.302,0.233l2.808-2.807l-0.371-0.303
			c-2.061-1.687-5.02-2.578-8.557-2.578c-5.325,0-8.902,2.882-8.902,7.171c0,3.983,2.447,6.207,7.274,6.608l3.79,0.328
			c3.05,0.267,3.441,1.71,3.441,2.937c0,3.165-3.569,3.637-5.697,3.637c-2.984,0-5.225-0.827-6.846-2.532l-0.307-0.322l-2.871,2.873
			l0.318,0.307c2.473,2.381,5.48,3.443,9.752,3.443C303.533,37.49,307.377,34.564,307.377,30.037z"/>
		<rect x="311.75" y="2.978" fill="#58595B" width="4.657" height="4.657"/>
		<rect x="311.938" y="13.319" fill="#58595B" width="4.235" height="23.89"/>
		<path fill="#58595B" d="M323.691,30.598c0,4.017,2.484,6.61,6.329,6.61h2.819v-3.768h-2.211c-1.818,0-2.702-0.96-2.702-2.937V16.9
			h4.913v-3.441h-4.913V6.253h-4.235v7.206h-2.902V16.9h2.902V30.598z"/>
		<path fill="#58595B" d="M346.196,42.494l10.696-29.175h-4.582l-5.961,17.572l-6.006-17.572h-4.581l8.442,22.989l-1.586,4.346
			c-0.695,1.957-1.252,2.566-3.381,2.566h-1.463v3.862h1.884c1.971,0,3.628-0.593,4.788-1.707
			C345.156,44.716,345.711,43.802,346.196,42.494z"/>
		<path fill="#58595B" d="M164.633,63.884c-1.853,0-3.48,0.648-4.71,1.879c-1.76,1.795-1.997,4.252-1.997,6.42s0.237,4.625,2,6.424
			c1.227,1.227,2.854,1.875,4.707,1.875c1.853,0,3.48-0.648,4.71-1.879c1.759-1.795,1.997-4.252,1.997-6.42s-0.237-4.625-2-6.424
			C168.113,64.533,166.485,63.884,164.633,63.884z M167.135,76.621c-0.643,0.643-1.531,0.996-2.502,0.996
			c-0.965,0-1.819-0.344-2.471-0.996c-0.986-0.986-1.122-2.715-1.122-4.438c0-1.721,0.136-3.451,1.122-4.438
			c0.651-0.652,1.506-0.996,2.471-0.996c0.971,0,1.86,0.354,2.502,0.996c1.006,1.006,1.09,2.818,1.09,4.438
			S168.141,75.615,167.135,76.621z"/>
		<path fill="#58595B" d="M175.312,61.697v2.469h-1.966v2.584h1.966v13.545h3.114V66.75h3.277v-2.584h-3.277v-2.406
			c0-1.254,0.502-1.814,1.626-1.814h1.65v-2.803h-2.056C177.013,57.142,175.312,58.931,175.312,61.697z"/>
		<polygon fill="#58595B" points="216.822,71.666 209.832,46.111 205.988,46.111 198.998,71.666 192.81,46.111 188.119,46.111 
			196.857,80.294 200.846,80.294 207.91,54.812 214.974,80.294 218.962,80.294 227.701,46.111 223.011,46.111 		"/>
		<rect x="231.201" y="56.404" fill="#58595B" width="4.235" height="23.891"/>
		<rect x="231.014" y="46.063" fill="#58595B" width="4.657" height="4.657"/>
		<path fill="#58595B" d="M252.831,56.125c-2.356,0-4.417,0.752-6.024,2.188v-1.908h-4.236v23.891h4.236V65.683
			c0-3.621,1.924-5.697,5.275-5.697c3.372,0,5.229,2.021,5.229,5.697v14.611h4.236V65.121c0-2.838-0.848-5.1-2.514-6.717
			C257.543,56.914,255.398,56.125,252.831,56.125z"/>
		<path fill="#58595B" d="M282.111,58.359c-1.943-1.941-4.055-2.234-6.07-2.234c-2.369,0-4.584,0.799-5.922,2.139
			c-2.631,2.629-2.936,7.018-2.936,10.088c0,3.068,0.305,7.455,2.936,10.086c1.34,1.338,3.553,2.139,5.922,2.139
			c1.932,0,4.131-0.297,6.117-2.316v2.035h4.189V46.111h-4.236V58.359z M276.789,76.714c-4.73,0-5.369-4.229-5.369-8.363
			c0-4.139,0.639-8.365,5.369-8.365c4.678,0,5.322,4.021,5.322,8.365C282.111,72.693,281.467,76.714,276.789,76.714z"/>
		<path fill="#58595B" d="M303.733,66.466l-3.7-0.326c-3.194-0.26-3.625-1.631-3.625-2.938c0-2.164,1.674-3.357,4.713-3.357
			c2.4,0,4.374,0.584,5.866,1.734l0.302,0.232l2.808-2.807l-0.371-0.303c-2.062-1.688-5.021-2.578-8.557-2.578
			c-5.325,0-8.903,2.881-8.903,7.17c0,3.984,2.448,6.207,7.275,6.609l3.789,0.328c3.051,0.268,3.441,1.709,3.441,2.938
			c0,3.166-3.568,3.637-5.696,3.637c-2.985,0-5.225-0.828-6.846-2.533l-0.307-0.32l-2.872,2.873l0.318,0.307
			c2.473,2.381,5.48,3.443,9.752,3.443c5.949,0,9.793-2.926,9.793-7.453C310.914,67.755,306.817,66.753,303.733,66.466z"/>
		<path fill="#58595B" d="M324.799,56.125c-2.72,0-5.107,0.949-6.908,2.75c-2.582,2.635-2.932,6.268-2.932,9.477
			c0,3.205,0.35,6.838,2.936,9.477c1.797,1.797,4.185,2.748,6.904,2.748s5.107-0.951,6.907-2.75c2.583-2.637,2.932-6.27,2.932-9.475
			c0-3.209-0.349-6.842-2.935-9.479C329.906,57.074,327.519,56.125,324.799,56.125z M328.703,75.156
			c-1.004,1.004-2.391,1.559-3.904,1.559c-1.505,0-2.84-0.539-3.858-1.559c-1.534-1.533-1.745-4.178-1.745-6.805
			c0-2.631,0.211-5.273,1.745-6.809c1.019-1.018,2.353-1.557,3.858-1.557c1.514,0,2.9,0.553,3.904,1.557
			c1.566,1.568,1.698,4.336,1.698,6.809C330.401,70.822,330.27,73.587,328.703,75.156z"/>
		<path fill="#58595B" d="M356.598,58.404c-1.599-1.598-3.342-2.279-5.828-2.279c-2.38,0-4.58,0.863-6.024,2.309v-2.029h-4.236
			v23.891h4.236V65.728c0-3.381,2.093-5.742,5.089-5.742c1.639,0,2.463,0.35,3.67,1.557l0.311,0.311l3.087-3.145L356.598,58.404z"/>
	</g>
</g>
</svg>
